<svg width="354" height="369" viewBox="0 0 354 369" fill="none" xmlns="http://www.w3.org/2000/svg">
<g filter="url(#filter0_bd_2650_5390)">
<mask id="path-1-inside-1_2650_5390" fill="white">
<path d="M350 118.062C350 77.7866 350 57.6488 342.162 42.2656C335.267 28.7342 324.266 17.7327 310.734 10.8381C295.351 3 275.213 3 234.938 3H31.062C-9.21344 3 -29.3512 3 -44.7344 10.8381C-58.2658 17.7327 -69.2672 28.7342 -76.1619 42.2656C-84 57.6488 -84 77.7865 -84 118.062V248.938C-84 289.213 -84 309.351 -76.1619 324.734C-69.2672 338.266 -58.2658 349.267 -44.7344 356.162C-29.3512 364 -9.21344 364 31.062 364H234.938C275.213 364 295.351 364 310.734 356.162C324.266 349.267 335.267 338.266 342.162 324.734C350 309.351 350 289.213 350 248.938V118.062Z"/>
</mask>
<path d="M350 118.062C350 77.7866 350 57.6488 342.162 42.2656C335.267 28.7342 324.266 17.7327 310.734 10.8381C295.351 3 275.213 3 234.938 3H31.062C-9.21344 3 -29.3512 3 -44.7344 10.8381C-58.2658 17.7327 -69.2672 28.7342 -76.1619 42.2656C-84 57.6488 -84 77.7865 -84 118.062V248.938C-84 289.213 -84 309.351 -76.1619 324.734C-69.2672 338.266 -58.2658 349.267 -44.7344 356.162C-29.3512 364 -9.21344 364 31.062 364H234.938C275.213 364 295.351 364 310.734 356.162C324.266 349.267 335.267 338.266 342.162 324.734C350 309.351 350 289.213 350 248.938V118.062Z" fill="#FEFEFE" fill-opacity="0.08" shape-rendering="crispEdges"/>
<path d="M358 74.9138C358 30.7786 322.221 -5 278.086 -5H-4.08624C-48.2214 -5 -84 30.7786 -84 74.9138C-84 39.6152 -51.8031 11 -12.0862 11H278.086C313.385 11 342 39.6152 342 74.9138H358ZM-84 364H350H-84ZM278.086 364C322.221 364 358 328.221 358 284.086V74.9138C358 30.7786 322.221 -5 278.086 -5V11C313.385 11 342 39.6152 342 74.9138V292.086C342 331.803 313.385 364 278.086 364ZM-84 3V364V3Z" fill="#FEFEFE" fill-opacity="0.08" mask="url(#path-1-inside-1_2650_5390)"/>
</g>
<defs>
<filter id="filter0_bd_2650_5390" x="-155.914" y="-68.9138" width="577.828" height="504.828" filterUnits="userSpaceOnUse" color-interpolation-filters="sRGB">
<feFlood flood-opacity="0" result="BackgroundImageFix"/>
<feGaussianBlur in="BackgroundImageFix" stdDeviation="35.9569"/>
<feComposite in2="SourceAlpha" operator="in" result="effect1_backgroundBlur_2650_5390"/>
<feColorMatrix in="SourceAlpha" type="matrix" values="0 0 0 0 0 0 0 0 0 0 0 0 0 0 0 0 0 0 127 0" result="hardAlpha"/>
<feOffset dy="1"/>
<feGaussianBlur stdDeviation="2"/>
<feComposite in2="hardAlpha" operator="out"/>
<feColorMatrix type="matrix" values="0 0 0 0 0.0470588 0 0 0 0 0.0470588 0 0 0 0 0.0509804 0 0 0 0.05 0"/>
<feBlend mode="normal" in2="effect1_backgroundBlur_2650_5390" result="effect2_dropShadow_2650_5390"/>
<feBlend mode="normal" in="SourceGraphic" in2="effect2_dropShadow_2650_5390" result="shape"/>
</filter>
</defs>
</svg>
