<svg width="278" height="353" viewBox="0 0 278 353" fill="none" xmlns="http://www.w3.org/2000/svg">
<g filter="url(#filter0_bd_1666_9278)">
<mask id="path-1-inside-1_1666_9278" fill="white">
<path d="M4.82617 171.832C4.82617 233.438 4.82617 264.241 16.8155 287.771C27.3615 308.469 44.1894 325.297 64.8872 335.843C88.4175 347.832 119.22 347.832 180.826 347.832H238.826C300.432 347.832 331.235 347.832 354.765 335.843C375.463 325.297 392.291 308.469 402.837 287.771C414.826 264.241 414.826 233.438 414.826 171.832V113.832C414.826 52.2263 414.826 21.4234 402.837 -2.10693C392.291 -22.8048 375.463 -39.6326 354.765 -50.1787C331.235 -62.168 300.432 -62.168 238.826 -62.168H180.826C119.22 -62.168 88.4175 -62.168 64.8872 -50.1787C44.1894 -39.6326 27.3615 -22.8048 16.8155 -2.10693C4.82617 21.4234 4.82617 52.2263 4.82617 113.832V171.832Z"/>
</mask>
<path d="M4.82617 171.832C4.82617 233.438 4.82617 264.241 16.8155 287.771C27.3615 308.469 44.1894 325.297 64.8872 335.843C88.4175 347.832 119.22 347.832 180.826 347.832H238.826C300.432 347.832 331.235 347.832 354.765 335.843C375.463 325.297 392.291 308.469 402.837 287.771C414.826 264.241 414.826 233.438 414.826 171.832V113.832C414.826 52.2263 414.826 21.4234 402.837 -2.10693C392.291 -22.8048 375.463 -39.6326 354.765 -50.1787C331.235 -62.168 300.432 -62.168 238.826 -62.168H180.826C119.22 -62.168 88.4175 -62.168 64.8872 -50.1787C44.1894 -39.6326 27.3615 -22.8048 16.8155 -2.10693C4.82617 21.4234 4.82617 52.2263 4.82617 113.832V171.832Z" fill="#FEFEFE" fill-opacity="0.08" shape-rendering="crispEdges"/>
<path d="M4.82617 347.832H414.826H4.82617ZM414.826 -62.168H4.82617H414.826ZM114.826 -62.168C48.4098 -62.168 -5.43131 -8.32686 -5.43131 58.0895V227.575C-5.43131 293.991 48.4098 347.832 114.826 347.832C59.7399 347.832 15.0837 298.583 15.0837 237.832V47.832C15.0837 -12.9193 59.7399 -62.168 114.826 -62.168ZM414.826 347.832V-62.168V347.832Z" fill="#FEFEFE" fill-opacity="0.08" mask="url(#path-1-inside-1_1666_9278)"/>
</g>
<defs>
<filter id="filter0_bd_1666_9278" x="-93.6457" y="-160.64" width="606.944" height="606.944" filterUnits="userSpaceOnUse" color-interpolation-filters="sRGB">
<feFlood flood-opacity="0" result="BackgroundImageFix"/>
<feGaussianBlur in="BackgroundImageFix" stdDeviation="49.2359"/>
<feComposite in2="SourceAlpha" operator="in" result="effect1_backgroundBlur_1666_9278"/>
<feColorMatrix in="SourceAlpha" type="matrix" values="0 0 0 0 0 0 0 0 0 0 0 0 0 0 0 0 0 0 127 0" result="hardAlpha"/>
<feOffset dy="1"/>
<feGaussianBlur stdDeviation="2"/>
<feComposite in2="hardAlpha" operator="out"/>
<feColorMatrix type="matrix" values="0 0 0 0 0.0470588 0 0 0 0 0.0470588 0 0 0 0 0.0509804 0 0 0 0.05 0"/>
<feBlend mode="normal" in2="effect1_backgroundBlur_1666_9278" result="effect2_dropShadow_1666_9278"/>
<feBlend mode="normal" in="SourceGraphic" in2="effect2_dropShadow_1666_9278" result="shape"/>
</filter>
</defs>
</svg>
