<svg width="100" height="279" viewBox="0 0 100 279" fill="none" xmlns="http://www.w3.org/2000/svg">
<g filter="url(#filter0_bd_1666_9276)">
<mask id="path-1-inside-1_1666_9276" fill="white">
<path d="M4.62305 138.826C4.62305 180.761 4.62305 201.728 11.4739 218.268C20.6083 240.32 38.129 257.841 60.1815 266.975C76.7209 273.826 97.6883 273.826 139.623 273.826V273.826C181.558 273.826 202.525 273.826 219.065 266.975C241.117 257.841 258.638 240.32 267.772 218.268C274.623 201.728 274.623 180.761 274.623 138.826V138.826C274.623 96.8914 274.623 75.9241 267.772 59.3847C258.638 37.3321 241.117 19.8115 219.065 10.677C202.525 3.82617 181.558 3.82617 139.623 3.82617V3.82617C97.6883 3.82617 76.7209 3.82617 60.1815 10.677C38.129 19.8115 20.6083 37.3321 11.4739 59.3847C4.62305 75.9241 4.62305 96.8914 4.62305 138.826V138.826Z"/>
</mask>
<path d="M4.62305 138.826C4.62305 180.761 4.62305 201.728 11.4739 218.268C20.6083 240.32 38.129 257.841 60.1815 266.975C76.7209 273.826 97.6883 273.826 139.623 273.826V273.826C181.558 273.826 202.525 273.826 219.065 266.975C241.117 257.841 258.638 240.32 267.772 218.268C274.623 201.728 274.623 180.761 274.623 138.826V138.826C274.623 96.8914 274.623 75.9241 267.772 59.3847C258.638 37.3321 241.117 19.8115 219.065 10.677C202.525 3.82617 181.558 3.82617 139.623 3.82617V3.82617C97.6883 3.82617 76.7209 3.82617 60.1815 10.677C38.129 19.8115 20.6083 37.3321 11.4739 59.3847C4.62305 75.9241 4.62305 96.8914 4.62305 138.826V138.826Z" fill="#FEFEFE" fill-opacity="0.08" shape-rendering="crispEdges"/>
<path d="M-1.37695 183.826C-1.37695 236.846 41.6037 279.826 94.623 279.826H178.623C231.642 279.826 274.623 236.846 274.623 183.826C274.623 230.218 234.329 267.826 184.623 267.826H94.623C48.2311 267.826 10.623 230.218 10.623 183.826H-1.37695ZM274.623 3.82617H4.62305H274.623ZM94.623 3.82617C41.6037 3.82617 -1.37695 46.8068 -1.37695 99.8262V183.826C-1.37695 236.846 41.6037 279.826 94.623 279.826V267.826C48.2311 267.826 10.623 230.218 10.623 183.826V93.8262C10.623 44.1205 48.2311 3.82617 94.623 3.82617ZM274.623 273.826V3.82617V273.826Z" fill="#FEFEFE" fill-opacity="0.08" mask="url(#path-1-inside-1_1666_9276)"/>
</g>
<defs>
<filter id="filter0_bd_1666_9276" x="-111.281" y="-112.078" width="501.808" height="501.808" filterUnits="userSpaceOnUse" color-interpolation-filters="sRGB">
<feFlood flood-opacity="0" result="BackgroundImageFix"/>
<feGaussianBlur in="BackgroundImageFix" stdDeviation="57.9519"/>
<feComposite in2="SourceAlpha" operator="in" result="effect1_backgroundBlur_1666_9276"/>
<feColorMatrix in="SourceAlpha" type="matrix" values="0 0 0 0 0 0 0 0 0 0 0 0 0 0 0 0 0 0 127 0" result="hardAlpha"/>
<feOffset dy="1"/>
<feGaussianBlur stdDeviation="2"/>
<feComposite in2="hardAlpha" operator="out"/>
<feColorMatrix type="matrix" values="0 0 0 0 0.0470588 0 0 0 0 0.0470588 0 0 0 0 0.0509804 0 0 0 0.05 0"/>
<feBlend mode="normal" in2="effect1_backgroundBlur_1666_9276" result="effect2_dropShadow_1666_9276"/>
<feBlend mode="normal" in="SourceGraphic" in2="effect2_dropShadow_1666_9276" result="shape"/>
</filter>
</defs>
</svg>
