<svg width="24" height="24" viewBox="0 0 24 24" fill="none" xmlns="http://www.w3.org/2000/svg">
<g clip-path="url(#clip0_2204_3655)">
<path fill-rule="evenodd" clip-rule="evenodd" d="M3.00726 4.75545C2.57129 5.6111 2.57129 6.7312 2.57129 8.97141V14.6714C2.57129 16.9116 2.57129 18.0317 3.00726 18.8874C3.39076 19.64 4.00268 20.2519 4.75533 20.6354C5.61097 21.0714 6.73108 21.0714 8.97129 21.0714H14.6713C16.9115 21.0714 18.0316 21.0714 18.8873 20.6354C19.6399 20.2519 20.2518 19.64 20.6353 18.8874C21.0713 18.0317 21.0713 16.9116 21.0713 14.6714V8.97141C21.0713 6.7312 21.0713 5.6111 20.6353 4.75545C20.2518 4.0028 19.6399 3.39088 18.8873 3.00739C18.0316 2.57141 16.9115 2.57141 14.6713 2.57141H8.97129C6.73108 2.57141 5.61097 2.57141 4.75533 3.00739C4.00268 3.39088 3.39076 4.0028 3.00726 4.75545ZM7.5438 15.0569C7.5438 16.6741 8.37751 17.4777 9.77371 17.4777C10.3965 17.4777 10.748 17.1864 10.748 16.7645C10.748 16.3426 10.4367 16.0714 10.0248 16.0714C9.3217 16.0714 9.06054 15.7701 9.06054 14.9163V13.5C9.06054 12.7019 8.63349 12.0911 7.91528 11.8294C8.63349 11.5741 9.06054 10.9633 9.06054 10.1652V8.75893C9.06054 7.90514 9.3217 7.59375 10.0248 7.59375C10.4367 7.59375 10.748 7.33259 10.748 6.91071C10.748 6.48884 10.3965 6.1875 9.77371 6.1875C8.37751 6.1875 7.5438 7.00112 7.5438 8.61831V9.90402C7.5438 10.6473 7.363 10.8281 6.85072 10.9587C5.97684 11.1897 5.97684 12.4755 6.85072 12.7065C7.363 12.8471 7.5438 13.0279 7.5438 13.7712V15.0569ZM12.9177 16.7645C12.9177 17.1864 13.2693 17.4777 13.892 17.4777C15.2882 17.4777 16.1219 16.6741 16.1219 15.0569V13.7712C16.1219 13.0279 16.3027 12.8471 16.815 12.7065C17.6889 12.4855 17.6889 11.1797 16.815 10.9587C16.3027 10.8281 16.1219 10.6473 16.1219 9.90402V8.61831C16.1219 7.00112 15.2882 6.1875 13.892 6.1875C13.2693 6.1875 12.9177 6.48884 12.9177 6.91071C12.9177 7.33259 13.2291 7.59375 13.6409 7.59375C14.344 7.59375 14.6052 7.90514 14.6052 8.75893V10.1652C14.6052 10.9633 15.0322 11.5741 15.7505 11.8294C15.0322 12.0911 14.6052 12.7019 14.6052 13.5V14.9163C14.6052 15.7701 14.344 16.0714 13.6409 16.0714C13.2291 16.0714 12.9177 16.3426 12.9177 16.7645Z" fill="white"/>
</g>
<defs>
<clipPath id="clip0_2204_3655">
<rect width="18.4922" height="18.5123" fill="white" transform="translate(2.57129 2.57141)"/>
</clipPath>
</defs>
</svg>
