<svg width="24" height="24" viewBox="0 0 24 24" fill="none" xmlns="http://www.w3.org/2000/svg">
<g clip-path="url(#clip0_1896_3803)">
<path d="M3.42871 14.0692V12.3214C5.54813 14.1194 8.34054 14.9631 12.0671 14.9631C15.7937 14.9631 18.5861 14.1194 20.7055 12.3214V14.0692C18.4656 15.7164 15.6832 16.4799 12.0671 16.4799C8.45104 16.4799 5.66867 15.7164 3.42871 14.0692ZM3.42871 18.1473C3.42871 20.9195 6.91421 22.8783 12.0671 22.8783C17.22 22.8783 20.7055 20.9195 20.7055 18.1473V5.99325C20.7055 3.462 17.2501 1.71423 12.0671 1.71423C6.88407 1.71423 3.42871 3.462 3.42871 5.99325V18.1473ZM5.0459 5.99325C5.0459 4.30575 7.8584 3.13052 12.0671 3.13052C16.2758 3.13052 19.0883 4.30575 19.0883 5.99325C19.0883 7.61044 16.2557 8.74548 12.0671 8.74548C7.87849 8.74548 5.0459 7.61044 5.0459 5.99325Z" fill="white"/>
</g>
<defs>
<clipPath id="clip0_1896_3803">
<rect width="17.2767" height="21.1841" fill="white" transform="translate(3.42871 1.71423)"/>
</clipPath>
</defs>
</svg>
