<svg width="292" height="156" viewBox="0 0 292 156" fill="none" xmlns="http://www.w3.org/2000/svg">
<g filter="url(#filter0_dii_1739_4170)">
<circle cx="24.3007" cy="131.248" r="18.3007" fill="url(#paint0_linear_1739_4170)"/>
<path d="M14.5557 129.946L14.5557 135.618C14.5557 136.299 14.5557 136.639 14.6983 136.833C14.8226 137.002 15.0134 137.109 15.2223 137.128C15.4618 137.149 15.7527 136.973 16.3345 136.62L21.8722 133.26L21.8722 133.26C22.1667 133.081 22.314 132.992 22.4665 132.972C22.601 132.954 22.7377 132.974 22.8615 133.029C23.0019 133.092 23.1174 133.22 23.3485 133.476L23.3485 133.476L30.1759 141.025C30.8094 141.726 31.1262 142.076 31.4007 142.107C31.6387 142.134 31.8749 142.043 32.0332 141.864C32.2158 141.656 32.2158 141.184 32.2158 140.239L32.2158 135.848C32.2158 135.687 32.2158 135.606 32.1991 135.529C32.1842 135.461 32.1597 135.395 32.1262 135.334C32.0885 135.265 32.0355 135.204 31.9296 135.081L23.3415 125.172C23.1132 124.908 22.999 124.777 22.8584 124.711C22.7344 124.653 22.5966 124.63 22.4607 124.647C22.3065 124.665 22.1567 124.754 21.8571 124.933L15.1276 128.94L15.1276 128.94C14.9191 129.064 14.8148 129.126 14.7391 129.212C14.672 129.288 14.6215 129.377 14.5906 129.473C14.5557 129.582 14.5557 129.704 14.5557 129.946Z" fill="white"/>
<path d="M24.9805 125.122L28.5557 129.281L30.1692 131.096C30.8037 131.81 31.1209 132.167 31.3964 132.2C31.6351 132.229 31.8726 132.138 32.0319 131.958C32.2158 131.75 32.2158 131.273 32.2158 130.318L32.2158 127.542L32.2158 121.276C32.2158 120.601 32.2158 120.264 32.0742 120.071C31.9508 119.902 31.7613 119.794 31.5534 119.775C31.315 119.752 31.0251 119.924 30.4453 120.27L25.2694 123.352C24.8578 123.597 24.652 123.72 24.5562 123.891C24.4722 124.041 24.4437 124.215 24.4756 124.384C24.5121 124.577 24.6682 124.759 24.9805 125.122Z" fill="white"/>
</g>
<g filter="url(#filter1_bd_1739_4170)">
<path d="M48.0918 21.4442C48.0918 16.3196 48.0918 13.7572 49.0891 11.7999C49.9664 10.0781 51.3662 8.67831 53.088 7.80104C55.0453 6.80371 57.6077 6.80371 62.7323 6.80371H271.36C276.484 6.80371 279.047 6.80371 281.004 7.80104C282.726 8.67831 284.126 10.0781 285.003 11.7999C286 13.7572 286 16.3196 286 21.4442V90.4442C286 95.5689 286 98.1312 285.003 100.089C284.126 101.81 282.726 103.21 281.004 104.087C279.047 105.085 276.484 105.085 271.36 105.085H62.7323C57.6077 105.085 55.0453 105.085 53.088 104.087C51.3662 103.21 49.9664 101.81 49.0891 100.089C48.0918 98.1312 48.0918 95.5689 48.0918 90.4442V21.4442Z" fill="black" fill-opacity="0.2"/>
<path d="M48.0918 21.4442C48.0918 16.3196 48.0918 13.7572 49.0891 11.7999C49.9664 10.0781 51.3662 8.67831 53.088 7.80104C55.0453 6.80371 57.6077 6.80371 62.7323 6.80371H271.36C276.484 6.80371 279.047 6.80371 281.004 7.80104C282.726 8.67831 284.126 10.0781 285.003 11.7999C286 13.7572 286 16.3196 286 21.4442V90.4442C286 95.5689 286 98.1312 285.003 100.089C284.126 101.81 282.726 103.21 281.004 104.087C279.047 105.085 276.484 105.085 271.36 105.085H62.7323C57.6077 105.085 55.0453 105.085 53.088 104.087C51.3662 103.21 49.9664 101.81 49.0891 100.089C48.0918 98.1312 48.0918 95.5689 48.0918 90.4442V21.4442Z" fill="white"/>
<path d="M59.9042 15.2678H63.2882C65.0396 15.2678 66.2594 16.4751 66.2594 18.2327C66.2594 19.9967 65.0146 21.2102 63.2444 21.2102H61.3053V24.2939H59.9042V15.2678ZM61.3053 16.45V20.0342H62.9129C64.1326 20.0342 64.827 19.3774 64.827 18.239C64.827 17.1006 64.1326 16.45 62.9192 16.45H61.3053ZM67.3728 24.2939V15.2678H68.7239V24.2939H67.3728ZM72.4144 23.3369C73.3589 23.3369 74.097 22.6864 74.097 21.8294V21.3103L72.477 21.4103C71.67 21.4666 71.2134 21.8232 71.2134 22.3861C71.2134 22.9616 71.6888 23.3369 72.4144 23.3369ZM72.0391 24.4065C70.7505 24.4065 69.8498 23.6059 69.8498 22.4237C69.8498 21.2727 70.7318 20.5659 72.2956 20.4783L74.097 20.372V19.8653C74.097 19.1335 73.6029 18.6956 72.7772 18.6956C71.9953 18.6956 71.5074 19.0709 71.3886 19.6589H70.1125C70.1876 18.4704 71.2009 17.5947 72.8272 17.5947C74.4223 17.5947 75.4419 18.4392 75.4419 19.759V24.2939H74.1471V23.2118H74.1158C73.7342 23.9437 72.9023 24.4065 72.0391 24.4065ZM76.7554 24.2939V17.7136H78.044V18.8145H78.0753C78.4318 18.0639 79.1324 17.601 80.1457 17.601C81.5969 17.601 82.4288 18.5267 82.4288 20.0342V24.2939H81.0715V20.2969C81.0715 19.3086 80.6086 18.7644 79.6703 18.7644C78.7196 18.7644 78.1066 19.44 78.1066 20.4596V24.2939H76.7554ZM83.3045 21.9796H84.6807C84.6994 22.7302 85.2436 23.2431 86.0255 23.2431C86.945 23.2431 87.4454 22.6926 87.4454 21.6605V15.2678H88.8466V21.6668C88.8466 23.4558 87.7957 24.4941 86.038 24.4941C84.4117 24.4941 83.3045 23.4808 83.3045 21.9796ZM93.1188 18.6831C92.1743 18.6831 91.5112 19.4025 91.4424 20.397H94.7326C94.7013 19.3899 94.0633 18.6831 93.1188 18.6831ZM94.7264 22.3611H96.0087C95.821 23.5621 94.6826 24.419 93.1751 24.419C91.2423 24.419 90.0726 23.1117 90.0726 21.035C90.0726 18.9709 91.261 17.5947 93.1188 17.5947C94.9453 17.5947 96.0837 18.8833 96.0837 20.8787V21.3415H91.4362V21.4229C91.4362 22.5675 92.1242 23.3244 93.2064 23.3244C93.9758 23.3244 94.545 22.9366 94.7264 22.3611ZM97.5287 16.1561H98.886V17.7136H100.137V18.7832H98.886V22.4112C98.886 22.9804 99.1362 23.2368 99.6867 23.2368C99.8243 23.2368 100.043 23.2243 100.131 23.2056V24.2752C99.9807 24.3127 99.6804 24.3377 99.3802 24.3377C98.0478 24.3377 97.5287 23.8311 97.5287 22.5613V18.7832H96.5716V17.7136H97.5287V16.1561ZM104.384 26.2205H103.183L106.386 15.2678H107.587L104.384 26.2205ZM114.661 24.2939H113.26V16.4751H110.495V15.2678H117.42V16.4751H114.661V24.2939ZM119.065 23.3369C120.01 23.3369 120.748 22.6864 120.748 21.8294V21.3103L119.128 21.4103C118.321 21.4666 117.864 21.8232 117.864 22.3861C117.864 22.9616 118.339 23.3369 119.065 23.3369ZM118.69 24.4065C117.401 24.4065 116.5 23.6059 116.5 22.4237C116.5 21.2727 117.382 20.5659 118.946 20.4783L120.748 20.372V19.8653C120.748 19.1335 120.253 18.6956 119.428 18.6956C118.646 18.6956 118.158 19.0709 118.039 19.6589H116.763C116.838 18.4704 117.851 17.5947 119.478 17.5947C121.073 17.5947 122.092 18.4392 122.092 19.759V24.2939H120.798V23.2118H120.766C120.385 23.9437 119.553 24.4065 118.69 24.4065ZM123.287 19.5776C123.287 18.4016 124.326 17.5947 125.864 17.5947C127.328 17.5947 128.354 18.4141 128.398 19.5839H127.128C127.065 18.9896 126.584 18.6206 125.827 18.6206C125.095 18.6206 124.607 18.9771 124.607 19.4963C124.607 19.9029 124.932 20.1781 125.614 20.347L126.721 20.6034C128.047 20.9224 128.548 21.4229 128.548 22.3924C128.548 23.5934 127.428 24.419 125.814 24.419C124.257 24.419 123.225 23.6121 123.118 22.4049H124.457C124.563 23.0367 125.051 23.387 125.877 23.387C126.69 23.387 127.19 23.0492 127.19 22.5175C127.19 22.0984 126.94 21.867 126.252 21.6918L125.076 21.4041C123.888 21.1164 123.287 20.4971 123.287 19.5776ZM131.012 20.5346L133.671 17.7136H135.259L132.532 20.5471L135.366 24.2939H133.796L131.563 21.3728L131 21.9295V24.2939H129.649V15.2678H131V20.5346H131.012ZM147.964 24.2939H146.681V17.651H146.637L143.917 24.2251H142.878L140.151 17.651H140.107V24.2939H138.831V15.2678H140.451L143.372 22.3924H143.422L146.337 15.2678H147.964V24.2939ZM151.592 23.3369C152.536 23.3369 153.274 22.6864 153.274 21.8294V21.3103L151.654 21.4103C150.847 21.4666 150.391 21.8232 150.391 22.3861C150.391 22.9616 150.866 23.3369 151.592 23.3369ZM151.216 24.4065C149.928 24.4065 149.027 23.6059 149.027 22.4237C149.027 21.2727 149.909 20.5659 151.473 20.4783L153.274 20.372V19.8653C153.274 19.1335 152.78 18.6956 151.954 18.6956C151.172 18.6956 150.685 19.0709 150.566 19.6589H149.29C149.365 18.4704 150.378 17.5947 152.004 17.5947C153.599 17.5947 154.619 18.4392 154.619 19.759V24.2939H153.324V23.2118H153.293C152.911 23.9437 152.079 24.4065 151.216 24.4065ZM155.933 24.2939V17.7136H157.221V18.8145H157.252C157.609 18.0639 158.31 17.601 159.323 17.601C160.774 17.601 161.606 18.5267 161.606 20.0342V24.2939H160.249V20.2969C160.249 19.3086 159.786 18.7644 158.847 18.7644C157.897 18.7644 157.284 19.44 157.284 20.4596V24.2939H155.933ZM165.215 23.3369C166.16 23.3369 166.898 22.6864 166.898 21.8294V21.3103L165.278 21.4103C164.471 21.4666 164.014 21.8232 164.014 22.3861C164.014 22.9616 164.49 23.3369 165.215 23.3369ZM164.84 24.4065C163.551 24.4065 162.651 23.6059 162.651 22.4237C162.651 21.2727 163.533 20.5659 165.096 20.4783L166.898 20.372V19.8653C166.898 19.1335 166.404 18.6956 165.578 18.6956C164.796 18.6956 164.308 19.0709 164.189 19.6589H162.913C162.988 18.4704 164.002 17.5947 165.628 17.5947C167.223 17.5947 168.243 18.4392 168.243 19.759V24.2939H166.948V23.2118H166.917C166.535 23.9437 165.703 24.4065 164.84 24.4065ZM172.358 23.1993C173.416 23.1993 174.11 22.3424 174.11 20.985C174.11 19.6339 173.416 18.7457 172.358 18.7457C171.32 18.7457 170.645 19.6151 170.645 20.985C170.645 22.3611 171.32 23.1993 172.358 23.1993ZM172.371 26.771C170.82 26.771 169.669 25.9453 169.5 24.8069H170.857C171.051 25.3573 171.652 25.7201 172.421 25.7201C173.478 25.7201 174.104 25.1196 174.104 24.2189V23.1368H174.079C173.71 23.8498 172.934 24.319 171.996 24.319C170.344 24.319 169.262 23.0304 169.262 20.9787C169.262 18.9083 170.338 17.6072 172.027 17.6072C172.959 17.6072 173.722 18.0764 174.122 18.8395H174.147V17.7136H175.461V24.1751C175.461 25.7451 174.248 26.771 172.371 26.771ZM179.552 18.6831C178.607 18.6831 177.944 19.4025 177.875 20.397H181.166C181.134 19.3899 180.496 18.6831 179.552 18.6831ZM181.159 22.3611H182.442C182.254 23.5621 181.116 24.419 179.608 24.419C177.675 24.419 176.506 23.1117 176.506 21.035C176.506 18.9709 177.694 17.5947 179.552 17.5947C181.378 17.5947 182.517 18.8833 182.517 20.8787V21.3415H177.869V21.4229C177.869 22.5675 178.557 23.3244 179.639 23.3244C180.409 23.3244 180.978 22.9366 181.159 22.3611ZM183.568 24.2939V17.7136H184.856V18.8332H184.887C185.106 18.0639 185.694 17.6072 186.47 17.6072C186.664 17.6072 186.833 17.6385 186.933 17.6573V18.9146C186.827 18.8708 186.589 18.8395 186.326 18.8395C185.457 18.8395 184.919 19.4212 184.919 20.3532V24.2939H183.568Z" fill="url(#paint1_linear_1739_4170)"/>
<path d="M246.85 22.5389C247.802 22.5389 248.534 21.8709 248.534 20.9997V20.506L246.919 20.6047C246.106 20.657 245.642 21.0171 245.642 21.5863C245.642 22.1613 246.124 22.5389 246.85 22.5389ZM246.623 23.3985C245.421 23.3985 244.613 22.6725 244.613 21.5863C244.613 20.5524 245.409 19.9019 246.803 19.8206L248.534 19.7218V19.2165C248.534 18.4789 248.046 18.0374 247.21 18.0374C246.431 18.0374 245.944 18.4033 245.816 18.9958H244.84C244.91 17.9503 245.804 17.1488 247.233 17.1488C248.65 17.1488 249.545 17.9154 249.545 19.1178V23.2939H248.586V22.2543H248.563C248.203 22.9454 247.436 23.3985 246.623 23.3985ZM253.117 23.3985C251.578 23.3985 250.532 22.1671 250.532 20.2736C250.532 18.3801 251.572 17.1488 253.094 17.1488C253.959 17.1488 254.656 17.5728 255.016 18.2349H255.039V14.9125H256.05V23.2939H255.086V22.2717H255.068C254.679 22.9687 253.988 23.3985 253.117 23.3985ZM253.309 18.0374C252.24 18.0374 251.566 18.9087 251.566 20.2736C251.566 21.6444 252.24 22.5098 253.309 22.5098C254.348 22.5098 255.045 21.627 255.045 20.2736C255.045 18.9261 254.348 18.0374 253.309 18.0374ZM257.415 23.2939V17.2533H258.368V18.2175H258.391C258.675 17.5786 259.291 17.1488 260.104 17.1488C260.929 17.1488 261.539 17.5669 261.8 18.2988H261.824C262.16 17.5786 262.869 17.1488 263.717 17.1488C264.914 17.1488 265.686 17.9271 265.686 19.1236V23.2939H264.675V19.3559C264.675 18.5311 264.217 18.0432 263.421 18.0432C262.619 18.0432 262.056 18.6357 262.056 19.4547V23.2939H261.045V19.2456C261.045 18.5195 260.557 18.0432 259.808 18.0432C259.006 18.0432 258.426 18.6705 258.426 19.5069V23.2939H257.415ZM267.028 23.2939V17.2533H268.038V23.2939H267.028ZM267.533 16.2368C267.19 16.2368 266.906 15.9522 266.906 15.6095C266.906 15.261 267.19 14.9822 267.533 14.9822C267.882 14.9822 268.166 15.261 268.166 15.6095C268.166 15.9522 267.882 16.2368 267.533 16.2368ZM269.403 23.2939V17.2533H270.356V18.2175H270.379C270.716 17.5669 271.361 17.1488 272.296 17.1488C273.62 17.1488 274.387 18.0026 274.387 19.3733V23.2939H273.376V19.5534C273.376 18.5776 272.917 18.0432 271.988 18.0432C271.035 18.0432 270.414 18.717 270.414 19.7393V23.2939H269.403Z" fill="#3C3C43" fill-opacity="0.29"/>
<path d="M63.5259 44.9541L64.1121 42.0732H61.7673L61.1811 44.9541H60.166L60.7451 42.0732H59.0723L59.2724 41.0438H60.9667L61.4885 38.4416H59.7228L59.9301 37.4194H61.6958L62.2749 34.6385H63.29L62.7324 37.4194H65.0629L65.6419 34.6385H66.6642L66.0923 37.4194H67.8723L67.6721 38.4416H65.8778L65.3417 41.0438H67.2075L67.0073 42.0732H65.1344L64.5482 44.9541H63.5259ZM61.9675 41.0652H64.3266L64.8627 38.4273H62.5036L61.9675 41.0652ZM69.0876 35.7251H70.3315V37.5195H71.7755V38.5417H70.3315V42.9596C70.3315 43.6387 70.6174 43.9461 71.2536 43.9461C71.3966 43.9461 71.6826 43.9247 71.7683 43.9104V44.9541C71.6182 44.9898 71.2751 45.0113 70.982 45.0113C69.6166 45.0113 69.0876 44.4537 69.0876 43.024V38.5417H67.9795V37.5195H69.0876V35.7251ZM75.4142 44.0248C76.5866 44.0248 77.4873 43.2027 77.4873 42.1304V41.5227L75.5 41.6443C74.4991 41.7086 73.9273 42.1518 73.9273 42.8524C73.9273 43.5601 74.5206 44.0248 75.4142 44.0248ZM75.1354 45.0828C73.6556 45.0828 72.6619 44.1892 72.6619 42.8524C72.6619 41.5799 73.6413 40.7793 75.357 40.6792L77.4873 40.5577V39.9357C77.4873 39.0278 76.8868 38.4845 75.8574 38.4845C74.8995 38.4845 74.299 38.9349 74.1417 39.6641H72.9407C73.0265 38.3773 74.1274 37.3908 75.886 37.3908C77.6303 37.3908 78.7312 38.3344 78.7312 39.8142V44.9541H77.5516V43.6745H77.523C77.0798 44.5252 76.1362 45.0828 75.1354 45.0828ZM80.1824 39.5711C80.1824 38.2987 81.319 37.3908 82.956 37.3908C84.493 37.3908 85.6225 38.3058 85.6797 39.564H84.493C84.4072 38.8491 83.8282 38.4059 82.9132 38.4059C82.0053 38.4059 81.4048 38.8563 81.4048 39.5068C81.4048 40.0215 81.798 40.3646 82.6415 40.5791L83.7924 40.8579C85.2937 41.2368 85.837 41.7801 85.837 42.8738C85.837 44.1677 84.6145 45.0828 82.8774 45.0828C81.2475 45.0828 80.1109 44.1963 79.9822 42.881H81.2261C81.3619 43.653 81.9481 44.0677 82.956 44.0677C83.964 44.0677 84.586 43.6387 84.586 42.9668C84.586 42.4378 84.2786 42.1518 83.4422 41.9302L82.134 41.5942C80.8257 41.2582 80.1824 40.5862 80.1824 39.5711ZM88.4391 40.8222L91.7275 37.5195H93.2359L90.0118 40.7292L93.336 44.9541H91.8919L89.1325 41.4941L88.4391 42.1518V44.9541H87.1952V34.6385H88.4391V40.8222Z" fill="#007AFF"/>
<path d="M66.7786 68.4443L65.742 65.4919H61.6386L60.6021 68.4443H59.251L63.0541 58.1288H64.3266L68.1297 68.4443H66.7786ZM63.6689 59.6943L62.0175 64.3982H65.3631L63.7118 59.6943H63.6689ZM75.0067 61.0097V68.4443H73.8272V67.2362H73.7986C73.3554 68.094 72.5833 68.573 71.4395 68.573C69.8168 68.573 68.866 67.5222 68.866 65.8351V61.0097H70.1098V65.6135C70.1098 66.8216 70.6746 67.4721 71.8255 67.4721C73.0337 67.4721 73.7628 66.6429 73.7628 65.3775V61.0097H75.0067ZM77.0226 59.2154H78.2665V61.0097H79.7105V62.032H78.2665V66.4499C78.2665 67.129 78.5525 67.4364 79.1887 67.4364C79.3317 67.4364 79.6176 67.4149 79.7034 67.4006V68.4443C79.5533 68.4801 79.2101 68.5015 78.917 68.5015C77.5516 68.5015 77.0226 67.9439 77.0226 66.5142V62.032H75.9146V61.0097H77.0226V59.2154ZM81.1045 68.4443V58.1288H82.3484V62.1964H82.377C82.7916 61.3671 83.6066 60.881 84.7361 60.881C86.366 60.881 87.3525 61.9819 87.3525 63.6404V68.4443H86.1086V63.8692C86.1086 62.6896 85.5153 61.9819 84.35 61.9819C83.1133 61.9819 82.3484 62.8255 82.3484 64.1122V68.4443H81.1045ZM92.0134 68.573C89.9546 68.573 88.5678 67.0932 88.5678 64.727C88.5678 62.3536 89.9546 60.881 92.0134 60.881C94.0651 60.881 95.452 62.3536 95.452 64.727C95.452 67.0932 94.0651 68.573 92.0134 68.573ZM92.0134 67.4793C93.3288 67.4793 94.1866 66.4784 94.1866 64.727C94.1866 62.9756 93.3288 61.9748 92.0134 61.9748C90.6981 61.9748 89.8331 62.9756 89.8331 64.727C89.8331 66.4784 90.6981 67.4793 92.0134 67.4793ZM96.7101 68.4443V61.0097H97.8825V62.225H97.9111C98.1542 61.4029 98.8404 60.881 99.7126 60.881C99.927 60.881 100.113 60.9168 100.213 60.9311V62.1392C100.113 62.1034 99.8484 62.0677 99.5482 62.0677C98.5831 62.0677 97.954 62.7611 97.954 63.812V68.4443H96.7101ZM102.279 68.5158C101.821 68.5158 101.464 68.1584 101.464 67.7009C101.464 67.2434 101.821 66.8859 102.279 66.8859C102.736 66.8859 103.094 67.2434 103.094 67.7009C103.094 68.1584 102.736 68.5158 102.279 68.5158ZM102.279 63.2544C101.821 63.2544 101.464 62.8969 101.464 62.4394C101.464 61.9819 101.821 61.6245 102.279 61.6245C102.736 61.6245 103.094 61.9819 103.094 62.4394C103.094 62.8969 102.736 63.2544 102.279 63.2544ZM107.44 66.0209H108.72C108.749 66.8931 109.413 67.5007 110.35 67.5007C111.486 67.5007 112.101 66.8216 112.101 65.5634V58.1288H113.388V65.5706C113.388 67.5293 112.259 68.6874 110.357 68.6874C108.641 68.6874 107.44 67.5865 107.44 66.0209ZM115.261 68.4443V61.0097H116.505V68.4443H115.261ZM115.883 59.7587C115.461 59.7587 115.111 59.4084 115.111 58.9866C115.111 58.5577 115.461 58.2146 115.883 58.2146C116.312 58.2146 116.662 58.5577 116.662 58.9866C116.662 59.4084 116.312 59.7587 115.883 59.7587ZM118.185 68.4443V61.0097H119.357V62.1964H119.386C119.736 61.41 120.494 60.881 121.495 60.881C122.51 60.881 123.26 61.3957 123.582 62.2965H123.611C124.025 61.41 124.897 60.881 125.941 60.881C127.414 60.881 128.365 61.8389 128.365 63.3116V68.4443H127.121V63.5975C127.121 62.5824 126.556 61.9819 125.577 61.9819C124.59 61.9819 123.897 62.7111 123.897 63.719V68.4443H122.653V63.4617C122.653 62.5681 122.052 61.9819 121.13 61.9819C120.144 61.9819 119.429 62.754 119.429 63.7834V68.4443H118.185ZM130.566 71.2252C130.416 71.2252 130.166 71.2109 130.03 71.1823V70.1386C130.166 70.1672 130.359 70.1743 130.516 70.1743C131.21 70.1743 131.596 69.8383 131.882 68.9733L132.053 68.4515L129.308 61.0097H130.638L132.697 67.2005H132.718L134.777 61.0097H136.085L133.161 68.9662C132.525 70.7033 131.91 71.2252 130.566 71.2252Z" fill="black"/>
<path d="M64.3194 92.1061C61.4742 92.1061 59.6728 90.0402 59.6728 86.7732C59.6728 83.5349 61.4957 81.4474 64.3194 81.4474C66.5641 81.4474 68.2726 82.8128 68.6015 84.8717H67.3004C66.9716 83.5206 65.792 82.6341 64.3194 82.6341C62.3035 82.6341 60.9953 84.264 60.9953 86.7732C60.9953 89.3039 62.2892 90.9195 64.3266 90.9195C65.8421 90.9195 66.9287 90.1903 67.3004 88.9321H68.6015C68.1297 90.9695 66.5998 92.1061 64.3194 92.1061ZM69.9311 91.9346V84.4999H71.1035V85.7152H71.1321C71.3752 84.8931 72.0614 84.3713 72.9336 84.3713C73.148 84.3713 73.3339 84.407 73.434 84.4213V85.6294C73.3339 85.5937 73.0694 85.5579 72.7692 85.5579C71.8041 85.5579 71.175 86.2514 71.175 87.3022V91.9346H69.9311ZM77.0727 85.4507C75.9074 85.4507 75.0925 86.3443 75.0139 87.581H79.0529C79.0243 86.3371 78.2451 85.4507 77.0727 85.4507ZM79.0243 89.8043H80.2467C80.0322 91.1053 78.7741 92.0632 77.1513 92.0632C75.021 92.0632 73.7271 90.5835 73.7271 88.2458C73.7271 85.9368 75.0424 84.3713 77.0941 84.3713C79.1029 84.3713 80.3396 85.8296 80.3396 88.0814V88.5532H75.0067V88.6247C75.0067 90.0473 75.8431 90.9838 77.1799 90.9838C78.1235 90.9838 78.817 90.5048 79.0243 89.8043ZM84.0498 91.0052C85.2222 91.0052 86.1229 90.1831 86.1229 89.1108V88.5032L84.1356 88.6247C83.1348 88.6891 82.5629 89.1323 82.5629 89.8329C82.5629 90.5406 83.1562 91.0052 84.0498 91.0052ZM83.771 92.0632C82.2912 92.0632 81.2976 91.1697 81.2976 89.8329C81.2976 88.5604 82.2769 87.7597 83.9926 87.6597L86.1229 87.5381V86.9162C86.1229 86.0083 85.5224 85.465 84.493 85.465C83.5351 85.465 82.9346 85.9154 82.7773 86.6445H81.5764C81.6621 85.3578 82.763 84.3713 84.5216 84.3713C86.2659 84.3713 87.3668 85.3149 87.3668 86.7947V91.9346H86.1873V90.655H86.1587C85.7154 91.5056 84.7718 92.0632 83.771 92.0632ZM89.347 82.7056H90.5909V84.4999H92.0349V85.5222H90.5909V89.9401C90.5909 90.6192 90.8768 90.9266 91.513 90.9266C91.656 90.9266 91.942 90.9052 92.0277 90.8909V91.9346C91.8776 91.9703 91.5345 91.9918 91.2414 91.9918C89.876 91.9918 89.347 91.4342 89.347 90.0044V85.5222H88.2389V84.4999H89.347V82.7056ZM96.1311 85.4507C94.9659 85.4507 94.1509 86.3443 94.0723 87.581H98.1113C98.0827 86.3371 97.3035 85.4507 96.1311 85.4507ZM98.0827 89.8043H99.3051C99.0907 91.1053 97.8325 92.0632 96.2097 92.0632C94.0794 92.0632 92.7855 90.5835 92.7855 88.2458C92.7855 85.9368 94.1009 84.3713 96.1525 84.3713C98.1613 84.3713 99.398 85.8296 99.398 88.0814V88.5532H94.0651V88.6247C94.0651 90.0473 94.9015 90.9838 96.2383 90.9838C97.182 90.9838 97.8754 90.5048 98.0827 89.8043ZM110.557 91.9346L109.521 88.9822H105.417L104.381 91.9346H103.03L106.833 81.619H108.105L111.908 91.9346H110.557ZM107.447 83.1846L105.796 87.8884H109.142L107.49 83.1846H107.447ZM116.505 84.3713C118.399 84.3713 119.686 85.8868 119.686 88.2172C119.686 90.5477 118.406 92.0632 116.533 92.0632C115.468 92.0632 114.61 91.5414 114.167 90.7264H114.139V94.4152H112.895V84.4999H114.074V85.7581H114.103C114.56 84.9217 115.425 84.3713 116.505 84.3713ZM116.262 90.9695C117.584 90.9695 118.414 89.9043 118.414 88.2172C118.414 86.5373 117.584 85.465 116.262 85.465C114.989 85.465 114.132 86.5659 114.132 88.2172C114.132 89.8757 114.989 90.9695 116.262 90.9695ZM124.554 84.3713C126.449 84.3713 127.735 85.8868 127.735 88.2172C127.735 90.5477 126.456 92.0632 124.583 92.0632C123.518 92.0632 122.66 91.5414 122.217 90.7264H122.188V94.4152H120.944V84.4999H122.124V85.7581H122.152C122.61 84.9217 123.475 84.3713 124.554 84.3713ZM124.311 90.9695C125.634 90.9695 126.463 89.9043 126.463 88.2172C126.463 86.5373 125.634 85.465 124.311 85.465C123.039 85.465 122.181 86.5659 122.181 88.2172C122.181 89.8757 123.039 90.9695 124.311 90.9695ZM131.867 86.5516C131.867 85.2791 133.004 84.3713 134.641 84.3713C136.178 84.3713 137.308 85.2863 137.365 86.5445H136.178C136.092 85.8296 135.513 85.3864 134.598 85.3864C133.69 85.3864 133.09 85.8367 133.09 86.4873C133.09 87.002 133.483 87.3451 134.327 87.5596L135.478 87.8384C136.979 88.2172 137.522 88.7606 137.522 89.8543C137.522 91.1482 136.3 92.0632 134.562 92.0632C132.933 92.0632 131.796 91.1768 131.667 89.8614H132.911C133.047 90.6335 133.633 91.0481 134.641 91.0481C135.649 91.0481 136.271 90.6192 136.271 89.9472C136.271 89.4182 135.964 89.1323 135.127 88.9107L133.819 88.5747C132.511 88.2387 131.867 87.5667 131.867 86.5516ZM139.216 82.7056H140.46V84.4999H141.904V85.5222H140.46V89.9401C140.46 90.6192 140.746 90.9266 141.382 90.9266C141.525 90.9266 141.811 90.9052 141.897 90.8909V91.9346C141.747 91.9703 141.404 91.9918 141.111 91.9918C139.745 91.9918 139.216 91.4342 139.216 90.0044V85.5222H138.108V84.4999H139.216V82.7056ZM143.234 91.9346V84.4999H144.406V85.7152H144.435C144.678 84.8931 145.364 84.3713 146.236 84.3713C146.451 84.3713 146.637 84.407 146.737 84.4213V85.6294C146.637 85.5937 146.372 85.5579 146.072 85.5579C145.107 85.5579 144.478 86.2514 144.478 87.3022V91.9346H143.234ZM153.857 84.4999V91.9346H152.677V90.7264H152.649C152.205 91.5843 151.433 92.0632 150.29 92.0632C148.667 92.0632 147.716 91.0124 147.716 89.3253V84.4999H148.96V89.1037C148.96 90.3118 149.525 90.9623 150.676 90.9623C151.884 90.9623 152.613 90.1331 152.613 88.8678V84.4999H153.857ZM161.649 86.9376H160.434C160.255 86.1298 159.626 85.465 158.532 85.465C157.245 85.465 156.373 86.5302 156.373 88.2172C156.373 89.9472 157.26 90.9695 158.546 90.9695C159.561 90.9695 160.226 90.4333 160.441 89.5398H161.663C161.47 91.0195 160.226 92.0632 158.539 92.0632C156.48 92.0632 155.108 90.6121 155.108 88.2172C155.108 85.8725 156.473 84.3713 158.525 84.3713C160.384 84.3713 161.492 85.6008 161.649 86.9376ZM163.207 82.7056H164.451V84.4999H165.895V85.5222H164.451V89.9401C164.451 90.6192 164.737 90.9266 165.373 90.9266C165.516 90.9266 165.802 90.9052 165.888 90.8909V91.9346C165.738 91.9703 165.395 91.9918 165.102 91.9918C163.736 91.9918 163.207 91.4342 163.207 90.0044V85.5222H162.099V84.4999H163.207V82.7056ZM173.33 84.4999V91.9346H172.15V90.7264H172.122C171.678 91.5843 170.906 92.0632 169.763 92.0632C168.14 92.0632 167.189 91.0124 167.189 89.3253V84.4999H168.433V89.1037C168.433 90.3118 168.998 90.9623 170.149 90.9623C171.357 90.9623 172.086 90.1331 172.086 88.8678V84.4999H173.33ZM174.945 91.9346V84.4999H176.118V85.7152H176.146C176.389 84.8931 177.076 84.3713 177.948 84.3713C178.162 84.3713 178.348 84.407 178.448 84.4213V85.6294C178.348 85.5937 178.084 85.5579 177.783 85.5579C176.818 85.5579 176.189 86.2514 176.189 87.3022V91.9346H174.945ZM182.087 85.4507C180.922 85.4507 180.107 86.3443 180.028 87.581H184.067C184.039 86.3371 183.259 85.4507 182.087 85.4507ZM184.039 89.8043H185.261C185.047 91.1053 183.788 92.0632 182.166 92.0632C180.035 92.0632 178.741 90.5835 178.741 88.2458C178.741 85.9368 180.057 84.3713 182.108 84.3713C184.117 84.3713 185.354 85.8296 185.354 88.0814V88.5532H180.021V88.6247C180.021 90.0473 180.857 90.9838 182.194 90.9838C183.138 90.9838 183.831 90.5048 184.039 89.8043Z" fill="black"/>
</g>
<g filter="url(#filter2_bdii_1739_4170)">
<path d="M48.0918 119.542C48.0918 115.443 48.0918 113.393 48.8897 111.827C49.5915 110.449 50.7113 109.33 52.0887 108.628C53.6546 107.83 55.7045 107.83 59.8042 107.83H274.288C278.388 107.83 280.437 107.83 282.003 108.628C283.381 109.33 284.501 110.449 285.202 111.827C286 113.393 286 115.443 286 119.542V124.666C286 132.866 286 136.966 284.405 140.097C283.001 142.852 280.761 145.092 278.006 146.496C274.875 148.091 270.775 148.091 262.575 148.091H71.5166C63.3172 148.091 59.2174 148.091 56.0857 146.496C53.3309 145.092 51.0912 142.852 49.6875 140.097C48.0918 136.966 48.0918 132.866 48.0918 124.666V119.542Z" fill="black" fill-opacity="0.4" shape-rendering="crispEdges"/>
<path d="M139.981 122.473C142.905 122.473 144.735 124.532 144.735 127.806C144.735 131.08 142.905 133.132 139.981 133.132C137.057 133.132 135.227 131.08 135.227 127.806C135.227 124.532 137.057 122.473 139.981 122.473ZM139.981 123.66C137.872 123.66 136.55 125.261 136.55 127.806C136.55 130.344 137.872 131.945 139.981 131.945C142.09 131.945 143.413 130.344 143.413 127.806C143.413 125.261 142.09 123.66 139.981 123.66ZM149.753 125.397C151.648 125.397 152.935 126.913 152.935 129.243C152.935 131.574 151.655 133.089 149.782 133.089C148.717 133.089 147.859 132.567 147.416 131.752H147.387V135.441H146.143V125.526H147.323V126.784H147.351C147.809 125.948 148.674 125.397 149.753 125.397ZM149.51 131.995C150.833 131.995 151.662 130.93 151.662 129.243C151.662 127.563 150.833 126.491 149.51 126.491C148.238 126.491 147.38 127.592 147.38 129.243C147.38 130.902 148.238 131.995 149.51 131.995ZM157.174 126.477C156.009 126.477 155.194 127.37 155.115 128.607H159.154C159.125 127.363 158.346 126.477 157.174 126.477ZM159.125 130.83H160.348C160.133 132.131 158.875 133.089 157.252 133.089C155.122 133.089 153.828 131.609 153.828 129.272C153.828 126.963 155.144 125.397 157.195 125.397C159.204 125.397 160.441 126.855 160.441 129.107V129.579H155.108V129.651C155.108 131.073 155.944 132.01 157.281 132.01C158.225 132.01 158.918 131.531 159.125 130.83ZM161.699 132.96V125.526H162.871V126.712H162.9C163.315 125.912 164.108 125.397 165.259 125.397C166.889 125.397 167.832 126.448 167.832 128.135V132.96H166.589V128.357C166.589 127.156 166.024 126.498 164.88 126.498C163.708 126.498 162.943 127.327 162.943 128.585V132.96H161.699ZM176.511 132.96H175.224V123.803H171.972V122.645H179.764V123.803H176.511V132.96ZM181.451 132.031C182.623 132.031 183.524 131.209 183.524 130.137V129.529L181.537 129.651C180.536 129.715 179.964 130.158 179.964 130.859C179.964 131.566 180.557 132.031 181.451 132.031ZM181.172 133.089C179.692 133.089 178.698 132.196 178.698 130.859C178.698 129.586 179.678 128.786 181.394 128.686L183.524 128.564V127.942C183.524 127.034 182.923 126.491 181.894 126.491C180.936 126.491 180.336 126.941 180.178 127.67H178.977C179.063 126.384 180.164 125.397 181.923 125.397C183.667 125.397 184.768 126.341 184.768 127.821V132.96H183.588V131.681H183.56C183.116 132.532 182.173 133.089 181.172 133.089ZM186.219 127.577C186.219 126.305 187.356 125.397 188.993 125.397C190.53 125.397 191.659 126.312 191.716 127.57H190.53C190.444 126.855 189.865 126.412 188.95 126.412C188.042 126.412 187.441 126.863 187.441 127.513C187.441 128.028 187.835 128.371 188.678 128.585L189.829 128.864C191.33 129.243 191.874 129.786 191.874 130.88C191.874 132.174 190.651 133.089 188.914 133.089C187.284 133.089 186.147 132.203 186.019 130.887H187.263C187.398 131.659 187.985 132.074 188.993 132.074C190.001 132.074 190.623 131.645 190.623 130.973C190.623 130.444 190.315 130.158 189.479 129.937L188.171 129.601C186.862 129.265 186.219 128.593 186.219 127.577ZM194.476 128.829L197.764 125.526H199.272L196.048 128.736L199.373 132.96H197.928L195.169 129.5L194.476 130.158V132.96H193.232V122.645H194.476V128.829Z" fill="white"/>
<path d="M273.523 121.621H278.954C279.786 121.621 280.199 121.208 280.199 120.389V115.534C280.199 114.715 279.786 114.301 278.954 114.301H273.523C272.692 114.301 272.274 114.711 272.274 115.534V120.389C272.274 121.212 272.692 121.621 273.523 121.621ZM274.072 120.389C273.718 120.389 273.523 120.202 273.523 119.832V116.675C273.523 116.309 273.718 116.118 274.072 116.118H278.402C278.756 116.118 278.954 116.309 278.954 116.675V119.832C278.954 120.202 278.756 120.389 278.402 120.389H274.072Z" fill="white"/>
</g>
<defs>
<filter id="filter0_dii_1739_4170" x="0.166666" y="107.114" width="48.2682" height="48.268" filterUnits="userSpaceOnUse" color-interpolation-filters="sRGB">
<feFlood flood-opacity="0" result="BackgroundImageFix"/>
<feColorMatrix in="SourceAlpha" type="matrix" values="0 0 0 0 0 0 0 0 0 0 0 0 0 0 0 0 0 0 127 0" result="hardAlpha"/>
<feMorphology radius="1.16667" operator="dilate" in="SourceAlpha" result="effect1_dropShadow_1739_4170"/>
<feOffset/>
<feGaussianBlur stdDeviation="2.33333"/>
<feComposite in2="hardAlpha" operator="out"/>
<feColorMatrix type="matrix" values="0 0 0 0 0.0470588 0 0 0 0 0.0470588 0 0 0 0 0.0509804 0 0 0 0.08 0"/>
<feBlend mode="normal" in2="BackgroundImageFix" result="effect1_dropShadow_1739_4170"/>
<feBlend mode="normal" in="SourceGraphic" in2="effect1_dropShadow_1739_4170" result="shape"/>
<feColorMatrix in="SourceAlpha" type="matrix" values="0 0 0 0 0 0 0 0 0 0 0 0 0 0 0 0 0 0 127 0" result="hardAlpha"/>
<feMorphology radius="1.83007" operator="dilate" in="SourceAlpha" result="effect2_innerShadow_1739_4170"/>
<feOffset dy="1.83007"/>
<feGaussianBlur stdDeviation="3.66013"/>
<feComposite in2="hardAlpha" operator="arithmetic" k2="-1" k3="1"/>
<feColorMatrix type="matrix" values="0 0 0 0 0 0 0 0 0 0 0 0 0 0 0 0 0 0 0.12 0"/>
<feBlend mode="normal" in2="shape" result="effect2_innerShadow_1739_4170"/>
<feColorMatrix in="SourceAlpha" type="matrix" values="0 0 0 0 0 0 0 0 0 0 0 0 0 0 0 0 0 0 127 0" result="hardAlpha"/>
<feMorphology radius="1.83007" operator="dilate" in="SourceAlpha" result="effect3_innerShadow_1739_4170"/>
<feOffset dy="-1.83007"/>
<feGaussianBlur stdDeviation="3.66013"/>
<feComposite in2="hardAlpha" operator="arithmetic" k2="-1" k3="1"/>
<feColorMatrix type="matrix" values="0 0 0 0 1 0 0 0 0 1 0 0 0 0 1 0 0 0 0.12 0"/>
<feBlend mode="normal" in2="effect2_innerShadow_1739_4170" result="effect3_innerShadow_1739_4170"/>
</filter>
<filter id="filter1_bd_1739_4170" x="26.131" y="-15.1571" width="281.83" height="142.203" filterUnits="userSpaceOnUse" color-interpolation-filters="sRGB">
<feFlood flood-opacity="0" result="BackgroundImageFix"/>
<feGaussianBlur in="BackgroundImageFix" stdDeviation="10.9804"/>
<feComposite in2="SourceAlpha" operator="in" result="effect1_backgroundBlur_1739_4170"/>
<feColorMatrix in="SourceAlpha" type="matrix" values="0 0 0 0 0 0 0 0 0 0 0 0 0 0 0 0 0 0 127 0" result="hardAlpha"/>
<feMorphology radius="1.16667" operator="dilate" in="SourceAlpha" result="effect2_dropShadow_1739_4170"/>
<feOffset/>
<feGaussianBlur stdDeviation="2.33333"/>
<feComposite in2="hardAlpha" operator="out"/>
<feColorMatrix type="matrix" values="0 0 0 0 0.0470588 0 0 0 0 0.0470588 0 0 0 0 0.0509804 0 0 0 0.08 0"/>
<feBlend mode="normal" in2="effect1_backgroundBlur_1739_4170" result="effect2_dropShadow_1739_4170"/>
<feBlend mode="normal" in="SourceGraphic" in2="effect2_dropShadow_1739_4170" result="shape"/>
</filter>
<filter id="filter2_bdii_1739_4170" x="20.0918" y="79.8298" width="293.908" height="96.2615" filterUnits="userSpaceOnUse" color-interpolation-filters="sRGB">
<feFlood flood-opacity="0" result="BackgroundImageFix"/>
<feGaussianBlur in="BackgroundImageFix" stdDeviation="14"/>
<feComposite in2="SourceAlpha" operator="in" result="effect1_backgroundBlur_1739_4170"/>
<feColorMatrix in="SourceAlpha" type="matrix" values="0 0 0 0 0 0 0 0 0 0 0 0 0 0 0 0 0 0 127 0" result="hardAlpha"/>
<feMorphology radius="1.16667" operator="dilate" in="SourceAlpha" result="effect2_dropShadow_1739_4170"/>
<feOffset/>
<feGaussianBlur stdDeviation="2.33333"/>
<feComposite in2="hardAlpha" operator="out"/>
<feColorMatrix type="matrix" values="0 0 0 0 0.0470588 0 0 0 0 0.0470588 0 0 0 0 0.0509804 0 0 0 0.08 0"/>
<feBlend mode="normal" in2="effect1_backgroundBlur_1739_4170" result="effect2_dropShadow_1739_4170"/>
<feBlend mode="normal" in="SourceGraphic" in2="effect2_dropShadow_1739_4170" result="shape"/>
<feColorMatrix in="SourceAlpha" type="matrix" values="0 0 0 0 0 0 0 0 0 0 0 0 0 0 0 0 0 0 127 0" result="hardAlpha"/>
<feMorphology radius="1.83007" operator="dilate" in="SourceAlpha" result="effect3_innerShadow_1739_4170"/>
<feOffset dy="1.83007"/>
<feGaussianBlur stdDeviation="3.66013"/>
<feComposite in2="hardAlpha" operator="arithmetic" k2="-1" k3="1"/>
<feColorMatrix type="matrix" values="0 0 0 0 0 0 0 0 0 0 0 0 0 0 0 0 0 0 0.12 0"/>
<feBlend mode="normal" in2="shape" result="effect3_innerShadow_1739_4170"/>
<feColorMatrix in="SourceAlpha" type="matrix" values="0 0 0 0 0 0 0 0 0 0 0 0 0 0 0 0 0 0 127 0" result="hardAlpha"/>
<feMorphology radius="1.83007" operator="dilate" in="SourceAlpha" result="effect4_innerShadow_1739_4170"/>
<feOffset dy="-1.83007"/>
<feGaussianBlur stdDeviation="3.66013"/>
<feComposite in2="hardAlpha" operator="arithmetic" k2="-1" k3="1"/>
<feColorMatrix type="matrix" values="0 0 0 0 0 0 0 0 0 0 0 0 0 0 0 0 0 0 0.12 0"/>
<feBlend mode="normal" in2="effect3_innerShadow_1739_4170" result="effect4_innerShadow_1739_4170"/>
</filter>
<linearGradient id="paint0_linear_1739_4170" x1="24.3007" y1="112.948" x2="24.3007" y2="149.549" gradientUnits="userSpaceOnUse">
<stop stop-color="#007AFF"/>
<stop offset="1" stop-color="#5856D6"/>
</linearGradient>
<linearGradient id="paint1_linear_1739_4170" x1="123.572" y1="12.2939" x2="123.572" y2="27.2939" gradientUnits="userSpaceOnUse">
<stop stop-color="#007AFF"/>
<stop offset="1" stop-color="#5856D6"/>
</linearGradient>
</defs>
</svg>
