<svg width="24" height="24" viewBox="0 0 24 24" fill="none" xmlns="http://www.w3.org/2000/svg">
<g clip-path="url(#clip0_2204_3664)">
<path d="M11.9092 11.4342L21.3712 6.06035C21.2206 5.90968 21.0398 5.78915 20.8188 5.66861L13.7272 1.63067C13.1146 1.27911 12.5018 1.08826 11.9092 1.08826C11.3065 1.08826 10.6938 1.27911 10.0811 1.63067L2.99958 5.66861C2.7786 5.78915 2.5978 5.90968 2.43708 6.06035L11.9092 11.4342ZM11.2161 22.9454V12.6396L1.79422 7.25566C1.73396 7.47665 1.71387 7.71772 1.71387 8.01906V15.8439C1.71387 17.3003 2.22614 17.8427 3.15025 18.3751L11.0253 22.855C11.0855 22.8951 11.1458 22.9253 11.2161 22.9454ZM12.5922 22.9454C12.6625 22.9253 12.7228 22.8951 12.7931 22.855L20.6581 18.3751C21.5922 17.8427 22.0944 17.3003 22.0944 15.8439V8.01906C22.0944 7.71772 22.0744 7.47665 22.0141 7.25566L12.5922 12.6396V22.9454Z" fill="white"/>
</g>
<defs>
<clipPath id="clip0_2204_3664">
<rect width="20.3805" height="22.0881" fill="white" transform="translate(1.71387 0.857178)"/>
</clipPath>
</defs>
</svg>
