<svg width="26" height="26" viewBox="0 0 26 26" fill="none" xmlns="http://www.w3.org/2000/svg">
<path d="M13.0003 2.16675C11.5777 2.16675 10.1689 2.44696 8.85459 2.99139C7.54023 3.53581 6.34597 4.33379 5.34 5.33976C3.30836 7.3714 2.16699 10.1269 2.16699 13.0001C2.16699 17.7884 5.27616 21.8509 9.57699 23.2917C10.1187 23.3784 10.292 23.0426 10.292 22.7501V20.9192C7.29116 21.5692 6.65199 19.4676 6.65199 19.4676C6.15366 18.2109 5.44949 17.8751 5.44949 17.8751C4.46366 17.2034 5.52533 17.2251 5.52533 17.2251C6.60866 17.3009 7.18283 18.3409 7.18283 18.3409C8.12533 19.9876 9.71783 19.5001 10.3353 19.2401C10.4328 18.5359 10.7145 18.0592 11.0178 17.7884C8.61283 17.5176 6.08866 16.5859 6.08866 12.4584C6.08866 11.2559 6.50033 10.2917 7.20449 9.52258C7.09616 9.25175 6.71699 8.12508 7.31283 6.66258C7.31283 6.66258 8.22283 6.37008 10.292 7.76758C11.1478 7.52925 12.0795 7.41008 13.0003 7.41008C13.9212 7.41008 14.8528 7.52925 15.7087 7.76758C17.7778 6.37008 18.6878 6.66258 18.6878 6.66258C19.2837 8.12508 18.9045 9.25175 18.7962 9.52258C19.5003 10.2917 19.912 11.2559 19.912 12.4584C19.912 16.5967 17.377 17.5067 14.9612 17.7776C15.3512 18.1134 15.7087 18.7742 15.7087 19.7817V22.7501C15.7087 23.0426 15.882 23.3892 16.4345 23.2917C20.7353 21.8401 23.8337 17.7884 23.8337 13.0001C23.8337 11.5774 23.5534 10.1687 23.009 8.85434C22.4646 7.53998 21.6666 6.34573 20.6607 5.33976C19.6547 4.33379 18.4604 3.53581 17.1461 2.99139C15.8317 2.44696 14.423 2.16675 13.0003 2.16675Z" fill="white"/>
</svg>
