<svg width="26" height="26" viewBox="0 0 26 26" fill="none" xmlns="http://www.w3.org/2000/svg">
<path d="M13.0003 2.1665C11.5777 2.1665 10.1689 2.44672 8.85459 2.99114C7.54023 3.53557 6.34597 4.33355 5.34 5.33951C3.30836 7.37116 2.16699 10.1267 2.16699 12.9998C2.16699 17.7882 5.27616 21.8507 9.57699 23.2915C10.1187 23.3782 10.292 23.0423 10.292 22.7498V20.919C7.29116 21.569 6.65199 19.4673 6.65199 19.4673C6.15366 18.2107 5.44949 17.8748 5.44949 17.8748C4.46366 17.2032 5.52533 17.2248 5.52533 17.2248C6.60866 17.3007 7.18283 18.3407 7.18283 18.3407C8.12533 19.9873 9.71783 19.4998 10.3353 19.2398C10.4328 18.5357 10.7145 18.059 11.0178 17.7882C8.61283 17.5173 6.08866 16.5857 6.08866 12.4582C6.08866 11.2557 6.50033 10.2915 7.20449 9.52234C7.09616 9.2515 6.71699 8.12484 7.31283 6.66234C7.31283 6.66234 8.22283 6.36984 10.292 7.76734C11.1478 7.529 12.0795 7.40984 13.0003 7.40984C13.9212 7.40984 14.8528 7.529 15.7087 7.76734C17.7778 6.36984 18.6878 6.66234 18.6878 6.66234C19.2837 8.12484 18.9045 9.2515 18.7962 9.52234C19.5003 10.2915 19.912 11.2557 19.912 12.4582C19.912 16.5965 17.377 17.5065 14.9612 17.7773C15.3512 18.1132 15.7087 18.774 15.7087 19.7815V22.7498C15.7087 23.0423 15.882 23.389 16.4345 23.2915C20.7353 21.8398 23.8337 17.7882 23.8337 12.9998C23.8337 11.5772 23.5534 10.1685 23.009 8.8541C22.4646 7.53974 21.6666 6.34548 20.6607 5.33951C19.6547 4.33355 18.4604 3.53557 17.1461 2.99114C15.8317 2.44672 14.423 2.1665 13.0003 2.1665Z" fill="url(#paint0_linear_2735_13413)"/>
<defs>
<linearGradient id="paint0_linear_2735_13413" x1="13.0003" y1="2.1665" x2="13.0003" y2="23.3083" gradientUnits="userSpaceOnUse">
<stop stop-color="#007AFF"/>
<stop offset="1" stop-color="#5856D6"/>
</linearGradient>
</defs>
</svg>
