<svg width="32" height="32" viewBox="0 0 32 32" fill="none" xmlns="http://www.w3.org/2000/svg">
<path d="M1.5 4.0055C1.5 2.89775 2.4205 2 3.55625 2H27.4438C28.5795 2 29.5 2.89775 29.5 4.0055V27.9945C29.5 29.1023 28.5795 30 27.4438 30H3.55625C2.4205 30 1.5 29.1023 1.5 27.9945V4.0055ZM10.1502 25.4395V12.7958H5.9485V25.4395H10.1502ZM8.05025 11.0685C9.515 11.0685 10.4268 10.099 10.4268 8.8845C10.4005 7.64375 9.51675 6.7005 8.07825 6.7005C6.63975 6.7005 5.7 7.6455 5.7 8.8845C5.7 10.099 6.61175 11.0685 8.02225 11.0685H8.05025ZM16.6392 25.4395V18.3783C16.6392 18.0002 16.6672 17.6222 16.7793 17.3527C17.082 16.5985 17.7733 15.8162 18.9353 15.8162C20.456 15.8162 21.0632 16.9748 21.0632 18.6758V25.4395H25.265V18.1875C25.265 14.3025 23.193 12.4965 20.428 12.4965C18.1985 12.4965 17.1993 13.7215 16.6392 14.5842V14.628H16.6112L16.6392 14.5842V12.7958H12.4392C12.4917 13.9823 12.4392 25.4395 12.4392 25.4395H16.6392Z" fill="white"/>
</svg>
