<svg width="159" height="40" viewBox="0 0 159 40" fill="none" xmlns="http://www.w3.org/2000/svg">
<path d="M-9.75553e-07 17.6819L-5.32718e-07 27.8128C-4.91059e-07 28.7659 -4.7023e-07 29.2424 0.199934 29.5155C0.374286 29.7536 0.641996 29.906 0.935777 29.9344C1.27266 29.9669 1.68241 29.7236 2.50191 29.2371L12.6819 23.1936C13.0928 22.9497 13.2982 22.8277 13.5107 22.8004C13.6981 22.7764 13.8886 22.8041 14.0614 22.8806C14.2573 22.9673 14.4194 23.1427 14.7438 23.4936L27.1273 36.8919C28.0214 37.8593 28.4685 38.343 28.8552 38.3842C29.1904 38.4198 29.522 38.2901 29.744 38.0363C30 37.7436 30 37.0849 30 35.7676L30 27.5482C30 27.3159 30 27.1997 29.9756 27.0893C29.954 26.9915 29.9183 26.8973 29.8696 26.8097C29.8146 26.7109 29.7376 26.6239 29.5835 26.45L14.7346 9.68578C14.4139 9.32366 14.2535 9.14261 14.0572 9.05166C13.8841 8.97146 13.6922 8.94065 13.5027 8.96265C13.2878 8.98759 13.0788 9.10936 12.6608 9.35289L0.822472 16.2508L0.822457 16.2508C0.522768 16.4254 0.372922 16.5127 0.263973 16.6344C0.167571 16.7421 0.0947796 16.8688 0.0502849 17.0063C-9.98296e-07 17.1617 -9.90715e-07 17.3351 -9.75553e-07 17.6819Z" fill="white"/>
<path d="M17.4937 9.5723L23.7824 16.73L27.1176 20.4014C28.0132 21.3872 28.461 21.8801 28.849 21.9238C29.1852 21.9616 29.5188 21.8327 29.7422 21.5786C30 21.2854 30 20.6195 30 19.2876L30 13.8403L30 2.88215C30 1.93691 30 1.46429 29.8016 1.19185C29.6285 0.954234 29.3626 0.801402 29.0701 0.771491C28.7348 0.737193 28.3265 0.975131 27.5097 1.45101L17.9042 7.04792C17.308 7.3953 17.0099 7.56899 16.872 7.81325C16.751 8.02751 16.7103 8.27785 16.7572 8.5194C16.8106 8.79477 17.0383 9.05395 17.4937 9.5723Z" fill="white"/>
<path d="M150.121 9.94678H154.828V14.3627H158.532V18.0668H154.828V26.0898C154.828 27.6427 155.54 28.3544 157.141 28.3544C157.756 28.3544 158.079 28.3382 158.532 28.2897V31.8806C157.95 31.9939 157.076 32.0909 156.171 32.0909C151.836 32.0909 150.121 30.6837 150.121 27.2059V18.0668H147.339V14.3627H150.121V9.94678Z" fill="white"/>
<path d="M136.67 17.404C134.487 17.404 132.95 18.9245 132.788 21.2376H140.391C140.293 18.876 138.87 17.404 136.67 17.404ZM140.488 26.9475H144.871C144.159 30.312 141.086 32.4148 136.719 32.4148C131.284 32.4148 128.081 28.9856 128.081 23.1948C128.081 17.3878 131.348 13.7969 136.654 13.7969C141.911 13.7969 145.017 17.1452 145.017 22.8066V24.2462H132.772V24.4888C132.837 27.1416 134.389 28.7915 136.848 28.7915C138.708 28.7915 139.986 28.1283 140.488 26.9475Z" fill="white"/>
<path d="M108.418 25.1678H113.141C113.174 27.0442 114.403 28.2573 116.279 28.2573C118.285 28.2573 119.385 27.0442 119.385 24.7472V8.68506H124.27V24.7796C124.27 29.8101 121.294 32.6247 116.344 32.6247C111.556 32.6247 108.418 29.7454 108.418 25.1678Z" fill="white"/>
<path d="M88.8525 32.0266V14.1851H93.414V17.0481H93.7052C94.5301 15.0424 96.3418 13.7969 98.9783 13.7969C102.941 13.7969 105.076 16.2232 105.076 20.4935V32.0266H100.369V21.6096C100.369 19.1509 99.318 17.8569 97.0858 17.8569C94.9021 17.8569 93.5596 19.3936 93.5596 21.739V32.0266H88.8525Z" fill="white"/>
<path d="M75.8541 28.7591C78.0378 28.7591 79.6877 27.368 79.6877 25.5564V24.2462L76.0805 24.4726C74.0586 24.6182 73.0719 25.3461 73.0719 26.624C73.0719 27.9504 74.2204 28.7591 75.8541 28.7591ZM74.3012 32.3015C70.8721 32.3015 68.4619 30.1987 68.4619 26.9313C68.4619 23.6962 70.9368 21.8199 75.3688 21.5611L79.6877 21.3023V19.8465C79.6877 18.3583 78.6201 17.5172 76.679 17.5172C74.9806 17.5172 73.8483 18.0995 73.4601 19.1671H69.1251C69.4324 15.8673 72.4572 13.7969 76.9378 13.7969C81.6611 13.7969 84.33 16.0291 84.33 19.8465V32.0266H79.7685V29.6973H79.4774C78.5554 31.331 76.6143 32.3015 74.3012 32.3015Z" fill="white"/>
<path d="M59.9111 32.0263V7.375H64.6182V32.0263H59.9111Z" fill="white"/>
<path d="M38 8.68506H47.7376C52.5417 8.68506 55.8253 11.904 55.8253 16.7566C55.8253 21.5607 52.4123 24.7796 47.495 24.7796H42.885V32.0262H38V8.68506ZM42.885 12.6966V20.8166H46.4274C49.2257 20.8166 50.8595 19.3932 50.8595 16.7728C50.8595 14.12 49.2581 12.6966 46.4436 12.6966H42.885Z" fill="white"/>
</svg>
