<svg width="32" height="32" viewBox="0 0 32 32" fill="none" xmlns="http://www.w3.org/2000/svg">
<path fill-rule="evenodd" clip-rule="evenodd" d="M5.60156 6.10047C8.22437 3.47591 11.7878 2 15.5 2C19.2122 2 22.7756 3.47591 25.3984 6.10047C28.0234 8.72503 29.5 12.2885 29.5 16C29.5 19.7115 28.0234 23.275 25.3984 25.8995C22.7756 28.5241 19.2122 30 15.5 30C11.7878 30 8.22437 28.5241 5.60156 25.8995C2.97656 23.275 1.5 19.7115 1.5 16C1.50075 12.2869 2.97606 8.72609 5.60156 6.10047ZM16.0009 12.3359C14.6403 12.9024 11.919 14.0746 7.83715 15.8526C7.17434 16.1162 6.82653 16.3741 6.7959 16.6261C6.74204 17.0518 7.27518 17.2197 7.99961 17.4478C8.09897 17.4791 8.20193 17.5115 8.30746 17.5459C9.02278 17.7782 9.98528 18.0501 10.484 18.0609C10.939 18.0707 11.4443 17.8837 12.0022 17.5C15.8172 14.9259 17.7837 13.6248 17.9084 13.5968C17.9959 13.5771 18.1162 13.5522 18.1972 13.625C18.2803 13.6977 18.2715 13.8355 18.2628 13.8724C18.2112 14.0973 16.1248 16.0371 15.0391 17.0465C14.6978 17.3638 14.4554 17.5892 14.4062 17.6404C14.2963 17.7546 14.1843 17.8626 14.0767 17.9663C13.4128 18.6063 12.9148 19.0864 14.1043 19.8701C14.6811 20.2501 15.1415 20.5637 15.6017 20.8771C16.0961 21.2138 16.5902 21.5504 17.2281 21.9688C17.3921 22.0763 17.5488 22.188 17.7013 22.2967C18.2811 22.71 18.802 23.0813 19.4462 23.0221C19.8203 22.9878 20.2075 22.636 20.4022 21.5869C20.8659 19.1074 21.7781 13.7353 21.9881 11.5215C22.0078 11.3277 21.9837 11.0794 21.9662 10.9705C21.9465 10.8615 21.9072 10.7062 21.7672 10.5913C21.5987 10.4551 21.3406 10.4265 21.2247 10.4283C20.6975 10.4379 19.8903 10.7187 16.0009 12.3359Z" fill="white"/>
</svg>
